P3
38 36
255
255
255
255
252
252
252
251
251
251
255
255
255
255
255
255
255
255
255
249
249
249
249
249
249
255
255
255
249
249
249
255
255
255
250
250
250
255
255
255
250
250
250
250
250
250
255
255
255
254
254
254
252
252
252
252
252
252
253
253
253
248
248
248
251
251
251
251
251
251
248
248
248
250
250
250
249
249
249
249
249
249
249
249
249
250
250
250
252
252
252
255
255
255
254
254
254
248
248
248
248
248
248
247
247
247
253
253
253
254
254
254
254
254
254
242
242
242
255
255
255
241
241
241
255
255
255
255
255
255
250
250
250
255
255
255
255
255
255
255
255
255
255
255
255
255
255
255
248
248
248
233
233
233
255
255
255
250
250
250
239
239
239
253
253
253
253
253
253
254
254
254
253
253
253
249
249
249
251
251
251
253
253
253
252
252
252
251
251
251
250
250
250
249
249
249
250
250
250
251
251
251
254
254
254
255
255
255
254
254
254
251
251
251
251
251
251
251
251
251
255
255
255
254
254
254
254
254
254
255
255
255
237
237
237
4
4
4
0
0
0
0
0
0
0
0
0
12
12
12
0
0
0
0
0
0
0
0
0
0
0
0
4
4
4
20
20
20
236
236
236
252
252
252
254
254
254
251
251
251
250
250
250
255
255
255
254
254
254
254
254
254
253
253
253
254
254
254
254
254
254
250
250
250
249
249
249
248
248
248
249
249
249
251
251
251
253
253
253
252
252
252
252
252
252
252
252
252
252
252
252
254
254
254
254
254
254
254
254
254
254
254
254
255
255
255
255
255
255
0
0
0
5
5
5
10
10
10
3
3
3
7
7
7
0
0
0
0
0
0
0
0
0
0
0
0
0
0
0
0
0
0
255
255
255
255
255
255
253
253
253
250
250
250
250
250
250
250
250
250
248
248
248
247
247
247
245
245
245
245
245
245
244
244
244
247
247
247
246
246
246
245
245
245
247
247
247
250
250
250
252
252
252
250
250
250
248
248
248
243
243
243
241
241
241
252
252
252
248
248
248
252
252
252
251
251
251
253
253
253
255
255
255
8
8
8
0
0
0
0
0
0
0
0
0
0
0
0
17
17
17
5
5
5
0
0
0
15
15
15
4
4
4
2
2
2
255
255
255
255
255
255
242
242
242
247
247
247
249
249
249
254
254
254
248
248
248
238
238
238
234
234
234
235
235
235
236
236
236
236
236
236
236
236
236
234
234
234
236
236
236
242
242
242
244
244
244
240
240
240
237
237
237
233
233
233
236
236
236
249
249
249
254
254
254
254
254
254
248
248
248
255
255
255
255
255
255
2
2
2
0
0
0
12
12
12
15
15
15
0
0
0
0
0
0
4
4
4
0
0
0
0
0
0
0
0
0
0
0
0
248
248
248
255
255
255
254
254
254
252
252
252
253
253
253
254
254
254
239
239
239
154
154
154
132
132
132
133
133
133
141
141
141
140
140
140
140
140
140
138
138
138
138
138
138
141
141
141
142
142
142
140
140
140
137
137
137
132
132
132
142
142
142
232
232
232
244
244
244
252
252
252
249
249
249
254
254
254
255
255
255
4
4
4
0
0
0
0
0
0
0
0
0
0
0
0
3
3
3
0
0
0
3
3
3
0
0
0
6
6
6
9
9
9
252
252
252
254
254
254
252
252
252
248
248
248
253
253
253
254
254
254
243
243
243
136
136
136
132
132
132
138
138
138
146
146
146
145
145
145
144
144
144
142
142
142
142
142
142
145
145
145
145
145
145
142
142
142
138
138
138
135
135
135
148
148
148
246
246
246
253
253
253
252
252
252
247
247
247
253
253
253
255
255
255
0
0
0
0
0
0
12
12
12
0
0
0
11
11
11
0
0
0
0
0
0
8
8
8
0
0
0
3
3
3
1
1
1
255
255
255
255
255
255
254
254
254
253
253
253
253
253
253
250
250
250
243
243
243
138
138
138
147
147
147
147
147
147
142
142
142
144
144
144
144
144
144
146
146
146
144
144
144
144
144
144
143
143
143
140
140
140
139
139
139
129
129
129
139
139
139
244
244
244
253
253
253
251
251
251
242
242
242
255
255
255
255
255
255
0
0
0
4
4
4
2
2
2
0
0
0
0
0
0
0
0
0
0
0
0
2
2
2
0
0
0
9
9
9
0
0
0
255
255
255
255
255
255
253
253
253
253
253
253
253
253
253
250
250
250
243
243
243
138
138
138
147
147
147
147
147
147
142
142
142
144
144
144
144
144
144
146
146
146
144
144
144
144
144
144
143
143
143
140
140
140
139
139
139
129
129
129
139
139
139
244
244
244
253
253
253
251
251
251
242
242
242
253
253
253
255
255
255
0
0
0
4
4
4
0
0
0
0
0
0
7
7
7
7
7
7
4
4
4
0
0
0
8
8
8
6
6
6
9
9
9
244
244
244
255
255
255
255
255
255
248
248
248
253
253
253
254
254
254
243
243
243
136
136
136
132
132
132
138
138
138
146
146
146
145
145
145
144
144
144
142
142
142
142
142
142
145
145
145
145
145
145
142
142
142
138
138
138
135
135
135
148
148
148
246
246
246
253
253
253
252
252
252
247
247
247
251
251
251
255
255
255
0
0
0
0
0
0
0
0
0
0
0
0
0
0
0
0
0
0
0
0
0
0
0
0
2
2
2
0
0
0
1
1
1
250
250
250
255
255
255
254
254
254
252
252
252
253
253
253
254
254
254
239
239
239
154
154
154
132
132
132
133
133
133
141
141
141
140
140
140
140
140
140
138
138
138
138
138
138
141
141
141
142
142
142
140
140
140
137
137
137
132
132
132
142
142
142
232
232
232
244
244
244
252
252
252
249
249
249
255
255
255
255
255
255
0
0
0
5
5
5
5
5
5
9
9
9
1
1
1
0
0
0
2
2
2
10
10
10
0
0
0
0
0
0
0
0
0
255
255
255
252
252
252
242
242
242
247
247
247
249
249
249
254
254
254
248
248
248
238
238
238
234
234
234
235
235
235
236
236
236
236
236
236
236
236
236
234
234
234
236
236
236
242
242
242
244
244
244
240
240
240
237
237
237
233
233
233
236
236
236
249
249
249
254
254
254
254
254
254
248
248
248
250
250
250
236
236
236
11
11
11
0
0
0
0
0
0
0
0
0
2
2
2
14
14
14
0
0
0
0
0
0
0
0
0
0
0
0
15
15
15
240
240
240
255
255
255
253
253
253
250
250
250
250
250
250
250
250
250
248
248
248
247
247
247
245
245
245
245
245
245
244
244
244
247
247
247
246
246
246
245
245
245
247
247
247
250
250
250
252
252
252
250
250
250
248
248
248
243
243
243
241
241
241
252
252
252
248
248
248
252
252
252
251
251
251
249
249
249
255
255
255
229
229
229
255
255
255
255
255
255
255
255
255
246
246
246
246
246
246
255
255
255
245
245
245
255
255
255
255
255
255
247
247
247
255
255
255
246
246
246
234
234
234
251
251
251
250
250
250
255
255
255
254
254
254
254
254
254
253
253
253
254
254
254
254
254
254
250
250
250
249
249
249
248
248
248
249
249
249
251
251
251
253
253
253
252
252
252
252
252
252
252
252
252
252
252
252
254
254
254
254
254
254
254
254
254
254
254
254
247
247
247
255
255
255
253
253
253
255
255
255
251
251
251
251
251
251
251
251
251
255
255
255
255
255
255
246
246
246
255
255
255
246
246
246
255
255
255
234
234
234
255
255
255
255
255
255
253
253
253
253
253
253
254
254
254
253
253
253
249
249
249
251
251
251
253
253
253
252
252
252
251
251
251
250
250
250
249
249
249
250
250
250
251
251
251
254
254
254
255
255
255
254
254
254
251
251
251
251
251
251
251
251
251
255
255
255
254
254
254
254
254
254
255
255
255
243
243
243
254
254
254
251
251
251
255
255
255
255
255
255
253
253
253
252
252
252
251
251
251
254
254
254
252
252
252
255
255
255
254
254
254
250
250
250
254
254
254
237
237
237
254
254
254
252
252
252
252
252
252
252
252
252
248
248
248
251
251
251
251
251
251
249
249
249
251
251
251
250
250
250
250
250
250
249
249
249
251
251
251
252
252
252
255
255
255
254
254
254
250
250
250
251
251
251
247
247
247
253
253
253
254
254
254
254
254
254
250
250
250
254
254
254
249
249
249
250
250
250
254
254
254
250
250
250
248
248
248
247
247
247
251
251
251
252
252
252
254
254
254
254
254
254
252
252
252
252
252
252
253
253
253
254
254
254
253
253
253
250
250
250
252
252
252
250
250
250
245
245
245
252
252
252
253
253
253
254
254
254
252
252
252
250
250
250
249
249
249
249
249
249
251
251
251
253
253
253
255
255
255
254
254
254
255
255
255
245
245
245
255
255
255
245
245
245
254
254
254
251
251
251
253
253
253
254
254
254
249
249
249
249
249
249
253
253
253
252
252
252
248
248
248
247
247
247
246
246
246
250
250
250
252
252
252
252
252
252
250
250
250
252
252
252
253
253
253
252
252
252
254
254
254
245
245
245
252
252
252
253
253
253
253
253
253
253
253
253
246
246
246
249
249
249
253
253
253
251
251
251
251
251
251
251
251
251
253
253
253
254
254
254
254
254
254
254
254
254
252
252
252
250
250
250
254
254
254
253
253
253
255
255
255
254
254
254
248
248
248
254
254
254
239
239
239
242
242
242
251
251
251
251
251
251
253
253
253
254
254
254
253
253
253
253
253
253
253
253
253
252
252
252
249
249
249
250
250
250
253
253
253
251
251
251
252
252
252
252
252
252
253
253
253
252
252
252
253
253
253
253
253
253
248
248
248
252
252
252
250
250
250
251
251
251
251
251
251
252
252
252
253
253
253
253
253
253
252
252
252
253
253
253
253
253
253
249
249
249
253
253
253
250
250
250
252
252
252
255
255
255
255
255
255
249
249
249
234
234
234
230
230
230
236
236
236
238
238
238
236
236
236
238
238
238
242
242
242
245
245
245
238
238
238
233
233
233
235
235
235
243
243
243
252
252
252
251
251
251
248
248
248
250
250
250
250
250
250
243
243
243
246
246
246
250
250
250
250
250
250
252
252
252
253
253
253
254
254
254
254
254
254
254
254
254
254
254
254
254
254
254
254
254
254
254
254
254
255
255
255
252
252
252
254
254
254
254
254
254
254
254
254
244
244
244
249
249
249
240
240
240
196
196
196
182
182
182
184
184
184
174
174
174
174
174
174
172
172
172
182
182
182
187
187
187
186
186
186
187
187
187
203
203
203
227
227
227
247
247
247
253
253
253
252
252
252
251
251
251
248
248
248
247
247
247
249
249
249
249
249
249
248
248
248
239
239
239
252
252
252
251
251
251
252
252
252
252
252
252
253
253
253
254
254
254
254
254
254
254
254
254
244
244
244
239
239
239
251
251
251
247
247
247
254
254
254
237
237
237
255
255
255
240
240
240
193
193
193
172
172
172
172
172
172
164
164
164
166
166
166
164
164
164
160
160
160
166
166
166
164
164
164
165
165
165
188
188
188
221
221
221
247
247
247
255
255
255
255
255
255
248
248
248
248
248
248
250
250
250
249
249
249
240
240
240
251
251
251
250
250
250
248
248
248
246
246
246
246
246
246
246
246
246
247
247
247
249
249
249
250
250
250
249
249
249
245
245
245
245
245
245
247
247
247
245
245
245
253
253
253
246
246
246
253
253
253
238
238
238
182
182
182
164
164
164
167
167
167
164
164
164
167
167
167
166
166
166
169
169
169
172
172
172
168
168
168
169
169
169
192
192
192
225
225
225
250
250
250
253
253
253
253
253
253
251
251
251
254
254
254
253
253
253
240
240
240
242
242
242
247
247
247
227
227
227
240
240
240
238
238
238
236
236
236
236
236
236
238
238
238
239
239
239
241
241
241
240
240
240
233
233
233
237
237
237
228
228
228
246
246
246
251
251
251
253
253
253
254
254
254
239
239
239
183
183
183
164
164
164
167
167
167
164
164
164
165
165
165
163
163
163
164
164
164
167
167
167
164
164
164
165
165
165
190
190
190
223
223
223
249
249
249
251
251
251
253
253
253
253
253
253
252
252
252
253
253
253
247
247
247
248
248
248
233
233
233
108
108
108
96
96
96
98
98
98
98
98
98
98
98
98
97
97
97
94
94
94
92
92
92
93
93
93
95
95
95
106
106
106
107
107
107
236
236
236
248
248
248
252
252
252
250
250
250
234
234
234
175
175
175
166
166
166
164
164
164
165
165
165
165
165
165
169
169
169
172
172
172
169
169
169
166
166
166
172
172
172
179
179
179
222
222
222
243
243
243
253
253
253
253
253
253
251
251
251
252
252
252
252
252
252
252
252
252
248
248
248
243
243
243
90
90
90
97
97
97
99
99
99
101
101
101
100
100
100
99
99
99
97
97
97
95
95
95
95
95
95
99
99
99
99
99
99
99
99
99
241
241
241
248
248
248
250
250
250
251
251
251
234
234
234
174
174
174
166
166
166
164
164
164
165
165
165
166
166
166
170
170
170
173
173
173
169
169
169
166
166
166
172
172
172
179
179
179
223
223
223
243
243
243
252
252
252
251
251
251
252
252
252
252
252
252
248
248
248
249
249
249
243
243
243
241
241
241
105
105
105
101
101
101
103
103
103
104
104
104
104
104
104
103
103
103
102
102
102
100
100
100
101
101
101
108
108
108
102
102
102
88
88
88
240
240
240
244
244
244
250
250
250
253
253
253
240
240
240
176
176
176
166
166
166
164
164
164
165
165
165
165
165
165
168
168
168
169
169
169
166
166
166
166
166
166
174
174
174
182
182
182
228
228
228
248
248
248
253
253
253
254
254
254
254
254
254
254
254
254
248
248
248
250
250
250
245
245
245
234
234
234
85
85
85
98
98
98
99
99
99
100
100
100
100
100
100
99
99
99
99
99
99
97
97
97
97
97
97
98
98
98
99
99
99
89
89
89
241
241
241
247
247
247
250
250
250
253
253
253
240
240
240
177
177
177
166
166
166
164
164
164
166
166
166
164
164
164
166
166
166
167
167
167
164
164
164
165
165
165
174
174
174
184
184
184
230
230
230
249
249
249
253
253
253
254
254
254
254
254
254
253
253
253
251
251
251
251
251
251
247
247
247
237
237
237
122
122
122
98
98
98
98
98
98
99
99
99
99
99
99
99
99
99
98
98
98
97
97
97
97
97
97
98
98
98
108
108
108
111
111
111
235
235
235
244
244
244
250
250
250
255
255
255
237
237
237
175
175
175
166
166
166
164
164
164
166
166
166
164
164
164
165
165
165
166
166
166
164
164
164
165
165
165
174
174
174
184
184
184
228
228
228
245
245
245
250
250
250
249
249
249
248
248
248
249
249
249
250
250
250
248
248
248
243
243
243
250
250
250
226
226
226
245
245
245
243
243
243
242
242
242
242
242
242
241
241
241
241
241
241
241
241
241
241
241
241
241
241
241
240
240
240
232
232
232
247
247
247
249
249
249
246
246
246
255
255
255
237
237
237
175
175
175
166
166
166
164
164
164
166
166
166
164
164
164
165
165
165
166
166
166
164
164
164
165
165
165
175
175
175
185
185
185
229
229
229
243
243
243
249
249
249
248
248
248
248
248
248
248
248
248
250
250
250
250
250
250
243
243
243
251
251
251
250
250
250
250
250
250
250
250
250
250
250
250
250
250
250
252
252
252
252
252
252
252
252
252
252
252
252
250
250
250
250
250
250
250
250
250
246
246
246
250
250
250
244
244
244
254
254
254
238
238
238
177
177
177
167
167
167
164
164
164
167
167
167
164
164
164
165
165
165
166
166
166
164
164
164
166
166
166
176
176
176
187
187
187
231
231
231
244
244
244
252
252
252
252
252
252
253
253
253
247
247
247
253
253
253
252
252
252
252
252
252
250
250
250
247
247
247
253
253
253
253
253
253
253
253
253
253
253
253
253
253
253
253
253
253
253
253
253
253
253
253
244
244
244
249
249
249
251
251
251
252
252
252
252
252
252
249
249
249
253
253
253
239
239
239
184
184
184
176
176
176
171
171
171
175
175
175
170
170
170
170
170
170
170
170
170
168
168
168
173
173
173
183
183
183
191
191
191
234
234
234
245
245
245
251
251
251
249
249
249
253
253
253
253
253
253
250
250
250
250
250
250
249
249
249
251
251
251
253
253
253
254
254
254
255
255
255
254
254
254
254
254
254
254
254
254
253
253
253
253
253
253
254
254
254
249
249
249
247
247
247
243
243
243
250
250
250
253
253
253
252
252
252
246
246
246
233
233
233
209
209
209
193
193
193
187
187
187
185
185
185
181
181
181
178
178
178
178
178
178
179
179
179
184
184
184
193
193
193
210
210
210
228
228
228
243
243
243
249
249
249
253
253
253
254
254
254
255
255
255
254
254
254
254
254
254
254
254
254
254
254
254
255
255
255
255
255
255
255
255
255
255
255
255
255
255
255
255
255
255
255
255
255
254
254
254
255
255
255
253
253
253
253
253
253
253
253
253
253
253
253
254
254
254
254
254
254
246
246
246
243
243
243
239
239
239
234
234
234
231
231
231
227
227
227
224
224
224
222
222
222
223
223
223
225
225
225
229
229
229
234
234
234
240
240
240
244
244
244
248
248
248
251
251
251
254
254
254
255
255
255
255
255
255
255
255
255
255
255
255
255
255
255
255
255
255
255
255
255
255
255
255
255
255
255
255
255
255
255
255
255
255
255
255
255
255
255
255
255
255
255
255
255
255
255
255
255
255
255
255
255
255
255
255
255
255
255
255
255
255
255
253
253
253
251
251
251
247
247
247
247
247
247
244
244
244
242
242
242
240
240
240
240
240
240
239
239
239
241
241
241
244
244
244
247
247
247
251
251
251
253
253
253
254
254
254
253
253
253
255
255
255
255
255
255
255
255
255
255
255
255
255
255
255
255
255
255
255
255
255
255
255
255
255
255
255
255
255
255
255
255
255
255
255
255
255
255
255
255
255
255
255
255
255
255
255
255
255
255
255
255
255
255
255
255
255
255
255
255
255
255
255
255
255
255
254
254
254
255
255
255
254
254
254
253
253
253
251
251
251
250
250
250
247
247
247
244
244
244
244
244
244
246
246
246
249
249
249
253
253
253
254
254
254
254
254
254
253
253
253
254
254
254
255
255
255
255
255
255
255
255
255
255
255
255
255
255
255
255
255
255
255
255
255
255
255
255
255
255
255
255
255
255
255
255
255
255
255
255
255
255
255
255
255
255
255
255
255
255
255
255
255
255
255
255
255
255
255
255
255
255
255
255
255
255
255
255
255
255
